<?xml version="1.0" encoding="UTF-8"?>
<svg width="38px" height="19px" viewBox="0 0 38 19" version="1.1" xmlns="http://www.w3.org/2000/svg" xmlns:xlink="http://www.w3.org/1999/xlink">
    <!-- Generator: Sketch 52.1 (67048) - http://www.bohemiancoding.com/sketch -->
    <title>Analysis</title>
    <desc>Created with Sketch.</desc>
    <defs>
        <path d="M0,3.47790114 C0,5.32051711 1.611,6.81368821 3.6,6.81368821 C5.586,6.81368821 7.199,5.32051711 7.199,3.47790114 C7.199,1.63625856 5.586,0.142114068 3.6,0.142114068 C1.611,0.142114068 0,1.63625856 0,3.47790114 Z M1.624,3.47790114 C1.624,2.4685019 2.508,1.64696578 3.6,1.64696578 C4.689,1.64696578 5.574,2.4685019 5.574,3.47790114 C5.574,4.48924715 4.689,5.3088365 3.6,5.3088365 C2.508,5.3088365 1.624,4.48924715 1.624,3.47790114 Z" id="path-1"></path>
        <path d="M0,3.89450951 C0,5.73809886 1.611,7.23126996 3.6,7.23126996 C5.586,7.23126996 7.199,5.73809886 7.199,3.89450951 C7.199,2.05286692 5.586,0.559695817 3.6,0.559695817 C1.611,0.559695817 0,2.05286692 0,3.89450951 Z M1.624,3.89450951 C1.624,2.88413688 2.508,2.06454753 3.6,2.06454753 C4.689,2.06454753 5.574,2.88413688 5.574,3.89450951 C5.574,4.90585551 4.689,5.72544487 3.6,5.72544487 C2.508,5.72544487 1.624,4.90585551 1.624,3.89450951 Z" id="path-3"></path>
        <path d="M0,3.47790114 C0,5.32051711 1.611,6.81368821 3.599,6.81368821 C5.586,6.81368821 7.198,5.32051711 7.198,3.47790114 C7.198,1.63625856 5.586,0.142114068 3.599,0.142114068 C1.611,0.142114068 0,1.63625856 0,3.47790114 Z M1.624,3.47790114 C1.624,2.4685019 2.508,1.64696578 3.599,1.64696578 C4.689,1.64696578 5.574,2.4685019 5.574,3.47790114 C5.574,4.48924715 4.689,5.3088365 3.599,5.3088365 C2.508,5.3088365 1.624,4.48924715 1.624,3.47790114 Z" id="path-5"></path>
        <path d="M0,3.89450951 C0,5.73809886 1.611,7.23126996 3.599,7.23126996 C5.586,7.23126996 7.198,5.73809886 7.198,3.89450951 C7.198,2.05286692 5.586,0.559695817 3.599,0.559695817 C1.611,0.559695817 0,2.05286692 0,3.89450951 Z M1.624,3.89450951 C1.624,2.88413688 2.508,2.06454753 3.599,2.06454753 C4.689,2.06454753 5.574,2.88413688 5.574,3.89450951 C5.574,4.90585551 4.689,5.72544487 3.599,5.72544487 C2.508,5.72544487 1.624,4.90585551 1.624,3.89450951 Z" id="path-7"></path>
        <path d="M0,3.47790114 C0,5.32051711 1.611,6.81368821 3.599,6.81368821 C5.585,6.81368821 7.198,5.32051711 7.198,3.47790114 C7.198,1.63625856 5.585,0.142114068 3.599,0.142114068 C1.611,0.142114068 0,1.63625856 0,3.47790114 Z M1.624,3.47790114 C1.624,2.4685019 2.508,1.64696578 3.599,1.64696578 C4.689,1.64696578 5.574,2.4685019 5.574,3.47790114 C5.574,4.48924715 4.689,5.3088365 3.599,5.3088365 C2.508,5.3088365 1.624,4.48924715 1.624,3.47790114 Z" id="path-9"></path>
        <path d="M0,3.89450951 C0,5.73809886 1.611,7.23126996 3.599,7.23126996 C5.585,7.23126996 7.198,5.73809886 7.198,3.89450951 C7.198,2.05286692 5.585,0.559695817 3.599,0.559695817 C1.611,0.559695817 0,2.05286692 0,3.89450951 Z M1.624,3.89450951 C1.624,2.88413688 2.508,2.06454753 3.599,2.06454753 C4.689,2.06454753 5.574,2.88413688 5.574,3.89450951 C5.574,4.90585551 4.689,5.72544487 3.599,5.72544487 C2.508,5.72544487 1.624,4.90585551 1.624,3.89450951 Z" id="path-11"></path>
        <path d="M0,3.47790114 C0,5.32051711 1.611,6.81368821 3.599,6.81368821 C5.586,6.81368821 7.199,5.32051711 7.199,3.47790114 C7.199,1.63625856 5.586,0.142114068 3.599,0.142114068 C1.611,0.142114068 0,1.63625856 0,3.47790114 Z M1.624,3.47790114 C1.624,2.4685019 2.508,1.64696578 3.599,1.64696578 C4.689,1.64696578 5.574,2.4685019 5.574,3.47790114 C5.574,4.48924715 4.689,5.3088365 3.599,5.3088365 C2.508,5.3088365 1.624,4.48924715 1.624,3.47790114 Z" id="path-13"></path>
        <path d="M0,3.89450951 C0,5.73809886 1.611,7.23126996 3.599,7.23126996 C5.586,7.23126996 7.199,5.73809886 7.199,3.89450951 C7.199,2.05286692 5.586,0.559695817 3.599,0.559695817 C1.611,0.559695817 0,2.05286692 0,3.89450951 Z M1.624,3.89450951 C1.624,2.88413688 2.508,2.06454753 3.599,2.06454753 C4.689,2.06454753 5.574,2.88413688 5.574,3.89450951 C5.574,4.90585551 4.689,5.72544487 3.599,5.72544487 C2.508,5.72544487 1.624,4.90585551 1.624,3.89450951 Z" id="path-15"></path>
    </defs>
    <g id="Analysis" stroke="none" stroke-width="1" fill="none" fill-rule="evenodd">
        <g id="Group-25-Copy" transform="translate(0.000000, 0.114068)">
            <g id="Group-3" transform="translate(0.000000, 10.148307)">
                <mask id="mask-2" fill="white">
                    <use xlink:href="#path-1"></use>
                </mask>
                <g id="Clip-2"></g>
                <polygon id="Fill-1" fill="#FFFFFF" mask="url(#mask-2)" points="-5 11.6806084 12.198 11.6806084 12.198 -4.72480608 -5 -4.72480608"></polygon>
            </g>
            <g id="Group-6" transform="translate(0.000000, 0.414467)">
                <mask id="mask-4" fill="white">
                    <use xlink:href="#path-3"></use>
                </mask>
                <g id="Clip-5"></g>
                <polygon id="Fill-4" fill="#FFFFFF" mask="url(#mask-4)" points="-5 12.0981901 12.198 12.0981901 12.198 -4.30722433 -5 -4.30722433"></polygon>
            </g>
            <g id="Group-9" transform="translate(20.000000, 10.148307)">
                <mask id="mask-6" fill="white">
                    <use xlink:href="#path-5"></use>
                </mask>
                <g id="Clip-8"></g>
                <polygon id="Fill-7" fill="#FFFFFF" mask="url(#mask-6)" points="-5 11.6806084 12.198 11.6806084 12.198 -4.72480608 -5 -4.72480608"></polygon>
            </g>
            <g id="Group-12" transform="translate(20.000000, 0.414467)">
                <mask id="mask-8" fill="white">
                    <use xlink:href="#path-7"></use>
                </mask>
                <g id="Clip-11"></g>
                <polygon id="Fill-10" fill="#FFFFFF" mask="url(#mask-8)" points="-5 12.0981901 12.198 12.0981901 12.198 -4.30722433 -5 -4.30722433"></polygon>
            </g>
            <g id="Group-15" transform="translate(30.000000, 10.148307)">
                <mask id="mask-10" fill="white">
                    <use xlink:href="#path-9"></use>
                </mask>
                <g id="Clip-14"></g>
                <polygon id="Fill-13" fill="#FFFFFF" mask="url(#mask-10)" points="-5 11.6806084 12.198 11.6806084 12.198 -4.72480608 -5 -4.72480608"></polygon>
            </g>
            <g id="Group-18" transform="translate(30.000000, 0.414467)">
                <mask id="mask-12" fill="white">
                    <use xlink:href="#path-11"></use>
                </mask>
                <g id="Clip-17"></g>
                <polygon id="Fill-16" fill="#FFFFFF" mask="url(#mask-12)" points="-5 12.0981901 12.198 12.0981901 12.198 -4.30722433 -5 -4.30722433"></polygon>
            </g>
            <g id="Group-21" transform="translate(10.000000, 10.148307)">
                <mask id="mask-14" fill="white">
                    <use xlink:href="#path-13"></use>
                </mask>
                <g id="Clip-20"></g>
                <polygon id="Fill-19" fill="#FFFFFF" mask="url(#mask-14)" points="-5 11.6806084 12.198 11.6806084 12.198 -4.72480608 -5 -4.72480608"></polygon>
            </g>
            <g id="Group-24" transform="translate(10.000000, 0.414467)">
                <mask id="mask-16" fill="white">
                    <use xlink:href="#path-15"></use>
                </mask>
                <g id="Clip-23"></g>
                <polygon id="Fill-22" fill="#FFFFFF" mask="url(#mask-16)" points="-5 12.0981901 12.198 12.0981901 12.198 -4.30722433 -5 -4.30722433"></polygon>
            </g>
        </g>
    </g>
</svg>
