<?xml version="1.0" encoding="UTF-8"?>
<svg width="24px" height="25px" viewBox="0 0 24 25" version="1.1" xmlns="http://www.w3.org/2000/svg" xmlns:xlink="http://www.w3.org/1999/xlink">
    <!-- Generator: Sketch 52.1 (67048) - http://www.bohemiancoding.com/sketch -->
    <title>Calendar</title>
    <desc>Created with Sketch.</desc>
    <g id="Calendar" stroke="none" stroke-width="1" fill="none" fill-rule="evenodd">
        <g id="Page-1-Copy" transform="translate(0.000000, 0.038023)" fill="#FFFFFF">
            <polygon id="Fill-1" points="16.5559783 -0.00010139417 16.5559783 2.61282636 7.12880435 2.61282636 7.12880435 -0.00010139417 3.57880435 -0.00010139417 3.57880435 2.61282636 0.0864130435 2.61282636 0.0864130435 5.83006337 23.5972826 5.83006337 23.5972826 2.61282636 20.1048913 2.61282636 20.1048913 -0.00010139417"></polygon>
            <path d="M0.0869565217,23.4058302 L23.5978261,23.4058302 L23.5978261,7.29429658 L0.0869565217,7.29429658 L0.0869565217,23.4058302 Z M19.598913,12.7614702 L21.476087,12.7614702 L21.476087,11.0103929 L19.598913,11.0103929 L19.598913,12.7614702 Z M15.198913,12.7614702 L17.0771739,12.7614702 L17.0771739,11.0103929 L15.198913,11.0103929 L15.198913,12.7614702 Z M10.8923913,12.7614702 L12.7695652,12.7614702 L12.7695652,11.0103929 L10.8923913,11.0103929 L10.8923913,12.7614702 Z M6.55434783,12.7614702 L8.4326087,12.7614702 L8.4326087,11.0103929 L6.55434783,11.0103929 L6.55434783,12.7614702 Z M2.24673913,12.7614702 L4.125,12.7614702 L4.125,11.0103929 L2.24673913,11.0103929 L2.24673913,12.7614702 Z M19.598913,17.0027883 L21.476087,17.0027883 L21.476087,15.251711 L19.598913,15.251711 L19.598913,17.0027883 Z M15.198913,17.0027883 L17.0771739,17.0027883 L17.0771739,15.251711 L15.198913,15.251711 L15.198913,17.0027883 Z M10.8923913,17.0027883 L12.7695652,17.0027883 L12.7695652,15.251711 L10.8923913,15.251711 L10.8923913,17.0027883 Z M6.55434783,17.0027883 L8.4326087,17.0027883 L8.4326087,15.251711 L6.55434783,15.251711 L6.55434783,17.0027883 Z M2.24673913,17.0027883 L4.125,17.0027883 L4.125,15.251711 L2.24673913,15.251711 L2.24673913,17.0027883 Z M19.598913,21.2816223 L21.476087,21.2816223 L21.476087,19.5295311 L19.598913,19.5295311 L19.598913,21.2816223 Z M15.198913,21.2816223 L17.0771739,21.2816223 L17.0771739,19.5295311 L15.198913,19.5295311 L15.198913,21.2816223 Z M10.8923913,21.2816223 L12.7695652,21.2816223 L12.7695652,19.5295311 L10.8923913,19.5295311 L10.8923913,21.2816223 Z M6.55434783,21.2816223 L8.4326087,21.2816223 L8.4326087,19.5295311 L6.55434783,19.5295311 L6.55434783,21.2816223 Z M2.24673913,21.2816223 L4.125,21.2816223 L4.125,19.5295311 L2.24673913,19.5295311 L2.24673913,21.2816223 Z" id="Fill-2"></path>
        </g>
    </g>
</svg>
