<?xml version="1.0" encoding="UTF-8"?>
<svg width="83px" height="37px" viewBox="0 0 83 37" version="1.1" xmlns="http://www.w3.org/2000/svg" xmlns:xlink="http://www.w3.org/1999/xlink">
    <!-- Generator: Sketch 52.1 (67048) - http://www.bohemiancoding.com/sketch -->
    <title>logo</title>
    <desc>Created with Sketch.</desc>
    <g id="logo" stroke="none" stroke-width="1" fill="none" fill-rule="evenodd">
        <g id="Artboard-1-Copy" transform="translate(0.000000, 0.627376)" fill="#353B46">
            <polygon id="Fill-3" points="21 4.86692015 26 4.86692015 26 0 21 0"></polygon>
            <path d="M10.634475,17.4541786 C5.9842785,17.800028 4.36664795,18.648055 4.36664795,20.6915645 C4.36664795,22.1563385 5.21560921,22.8121674 6.99438518,22.8121674 L10.634475,22.8121674 L10.634475,17.4541786 Z M1.17349803,8.74209306 C3.80123526,7.39188845 6.10499719,6.81368821 8.77428411,6.81368821 C11.6445817,6.81368821 13.5042111,7.62316854 14.3531724,9.20411788 C14.8388546,10.0906916 15,11.2085454 15,13.6760684 L15,26.2813688 L6.67209433,26.2813688 C2.06288602,26.2813688 0,24.6629435 0,20.9624621 C0,18.4173103 1.13307131,16.6061516 3.39640651,15.5648558 C5.13587872,14.7553755 6.75182482,14.4084553 10.1487928,14.0609998 L10.5530601,14.0224531 L10.5530601,13.3291482 C10.5530601,11.247092 9.86580573,10.5152404 7.72262774,10.5152404 C5.58001123,10.5152404 3.5586749,11.2085454 1.17349803,12.6733193 L1.17349803,8.74209306 Z" id="Fill-1"></path>
            <path d="M37.1250872,6.81368821 L37.1250872,18.2651683 C37.1250872,21.2266161 38.2009369,22.2143138 41.473338,22.2143138 L44.8761088,22.2143138 L44.8761088,6.81368821 L50,6.81368821 L50,26.2813688 L41.0427589,26.2813688 C37.7278979,26.2813688 35.4452307,25.6890793 33.9806638,24.5045001 C32.5172929,23.2414975 32,21.6615102 32,18.4631465 L32,6.81368821 L37.1250872,6.81368821 Z" id="Fill-5"></path>
            <path d="M54,21.7232811 C56.0149424,22.965608 57.4778608,23.4058771 59.2941623,23.4058771 C61.2706935,23.4058771 62.4559537,22.6450075 62.4559537,21.4828307 C62.4559537,20.6011794 61.8633236,19.9199033 60.51948,19.3187774 L58.6236123,18.3964943 C55.3438437,16.8335669 54,15.1504143 54,12.6251288 C54,9.09852335 56.8852307,6.81368821 61.3502596,6.81368821 C63.1665611,6.81368821 64.5504622,7.09421365 66.3283525,7.89627149 L66.3283525,11.9839278 C64.5899709,10.8618261 63.3646532,10.4204438 61.6652315,10.4204438 C59.7293065,10.4204438 58.5440463,11.1423515 58.5440463,12.3045283 C58.5440463,13.2668864 58.9001731,13.5874869 61.8633236,15.0702642 C64.0752606,16.1918093 64.9444515,16.7528602 65.7357224,17.6751432 C66.5253472,18.5968697 67,19.8792716 67,21.2418237 C67,24.9693611 64.1153181,27.2547529 59.4132371,27.2547529 C57.4383521,27.2547529 55.8179477,26.8935207 54,26.0519444 L54,21.7232811 Z" id="Fill-6"></path>
            <path d="M70,8.11381993 L73.5072861,8.11381993 L73.5072861,2.92015209 L78.3810242,2.92015209 L78.3810242,8.11381993 L83,8.11381993 L83,11.6709746 L78.3810242,11.6709746 L78.3810242,20.2214644 C78.3810242,22.9389975 78.980814,23.6587525 81.1614362,23.6587525 L82.5718332,23.6587525 L82.5718332,27.2547529 L79.5794162,27.2547529 C77.0139783,27.2547529 75.2597414,26.6554195 74.2763236,25.4567527 C73.4645288,24.4972643 73.2929058,23.698708 73.2929058,20.7408867 L73.2929058,11.6709746 L70,11.6709746 L70,8.11381993 Z" id="Fill-7"></path>
            <path d="M21.3800252,6.81368821 L21.3800252,19.6188842 C21.3800252,25.0148723 21.1999281,26.929668 20.2660116,28.6593593 C19.5380744,30.0070981 18.2396501,30.5780696 17,31.2715119 L20.1371398,35.0418251 C22.5824696,33.6717172 23.7865317,32.4637854 24.7182913,30.4511249 C25.6894135,28.4379051 26,26.0220414 26,21.0684024 L26,6.81368821 L21.3800252,6.81368821 Z" id="Fill-8"></path>
        </g>
    </g>
</svg>
