<?xml version="1.0" encoding="UTF-8"?>
<svg width="785px" height="280px" viewBox="0 0 785 280" version="1.1" xmlns="http://www.w3.org/2000/svg" xmlns:xlink="http://www.w3.org/1999/xlink">
    <!-- Generator: Sketch 52.1 (67048) - http://www.bohemiancoding.com/sketch -->
    <title>map_lab2</title>
    <desc>Created with Sketch.</desc>
    <g id="map_lab2" stroke="none" stroke-width="1" fill="none" fill-rule="evenodd">
        <path d="M500.538525,0.945069474 L500.538525,54.9554043 L221.082705,54.9554043 L221.082705,34.3046392 L153.310416,34.3046392 L153.310416,0.945069474 L0,0.945069474 L0,73.030334 L10.6154091,73.030334 L10.6154091,198.525461 L47.3596428,198.525461 L47.3596428,279.541559 L784.494288,279.541559 L784.494288,105.789431 L652.215047,105.789431 L652.215047,33.5099666 L593.425498,33.5099666 L593.425498,0.945069474 L500.538525,0.945069474 Z M508.298907,65.0871822 L510.95429,65.0871822 L510.95429,11.0768474 L583.008508,11.0768474 L583.008508,43.6417445 L641.799282,43.6417445 L641.799282,106.186172 L571.070306,106.186172 L571.070306,116.31795 L582.806414,116.31795 L582.806414,154.042858 L575.152591,154.042858 L575.152591,157.419323 L593.932568,157.419323 L593.932568,154.042858 L586.278745,154.042858 L586.278745,116.31795 L607.711656,116.31795 L607.711656,155.732282 L611.183986,155.732282 L611.183986,116.31795 L647.008389,116.31795 L647.008389,115.921209 L774.078523,115.921209 L774.078523,269.409781 L611.183986,269.409781 L611.183986,203.884438 L612.304685,203.884438 L612.304685,200.507973 L583.318384,200.507973 L583.318384,203.884438 L607.711656,203.884438 L607.711656,269.409781 L525.446216,269.409781 L525.446216,203.884438 L546.572926,203.884438 L546.572926,200.507973 L494.315277,200.507973 L494.315277,203.884438 L521.973886,203.884438 L521.973886,269.409781 L448.691186,269.409781 L448.691186,203.884438 L449.200706,203.884438 L449.200706,200.507973 L420.214405,200.507973 L420.214405,203.884438 L445.218856,203.884438 L445.218856,269.409781 L373.57005,269.409781 L373.57005,203.884438 L382.857768,203.884438 L382.857768,200.507973 L353.870242,200.507973 L353.870242,203.884438 L370.09772,203.884438 L370.09772,269.409781 L304.980814,269.409781 L304.980814,203.884438 L326.516609,203.884438 L326.516609,200.507973 L297.529083,200.507973 L297.529083,203.884438 L301.508484,203.884438 L301.508484,269.409781 L266.603912,269.409781 L266.603912,203.884438 L277.115212,203.884438 L277.115212,200.507973 L224.857563,200.507973 L224.857563,203.884438 L263.131581,203.884438 L263.131581,269.409781 L152.902555,269.409781 L152.902555,203.884438 L195.462176,203.884438 L195.462176,200.507973 L152.902555,200.507973 L152.902555,116.414454 L142.486789,116.414454 L142.486789,269.409781 L57.7754082,269.409781 L57.7754082,197.13389 L97.4775527,197.13389 L97.4775527,193.757425 L57.7754082,193.757425 L57.7754082,188.393683 L21.0311746,188.393683 L21.0311746,133.988991 L97.4775527,133.988991 L97.4775527,130.612526 L21.0311746,130.612526 L21.0311746,70.4461588 L97.4775527,70.4461588 L97.4775527,67.0696937 L21.0311746,67.0696937 L21.0311746,62.8985561 L10.4169902,62.8985561 L10.4169902,11.0768474 L142.486789,11.0768474 L142.486789,87.8205375 L152.902555,87.8205375 L152.902555,44.4364171 L183.109989,44.4364171 L183.109989,116.414454 L186.582319,116.414454 L186.582319,44.4364171 L210.66694,44.4364171 L210.66694,65.0871822 L214.13927,65.0871822 L214.13927,138.952418 L213.834293,138.952418 L213.834293,142.328883 L240.780064,142.328883 L240.780064,138.952418 L217.610375,138.952418 L217.610375,65.0871822 L290.893075,65.0871822 L290.893075,138.952418 L264.867134,138.952418 L264.867134,142.328883 L317.126008,142.328883 L317.126008,138.952418 L294.365405,138.952418 L294.365405,65.0871822 L357.849642,65.0871822 L357.849642,138.952418 L327.741417,138.952418 L327.741417,142.328883 L379.999066,142.328883 L379.999066,138.952418 L361.321972,138.952418 L361.321972,65.0871822 L504.826577,65.0871822 L504.826577,138.952418 L480.43453,138.952418 L480.43453,142.328883 L532.692179,142.328883 L532.692179,138.952418 L508.298907,138.952418 L508.298907,65.0871822 Z" id="Fill-1" fill="#FFFFFF"></path>
    </g>
</svg>
