<?xml version="1.0" encoding="UTF-8"?>
<svg width="803px" height="497px" viewBox="0 0 803 497" version="1.1" xmlns="http://www.w3.org/2000/svg" xmlns:xlink="http://www.w3.org/1999/xlink">
    <!-- Generator: Sketch 52.1 (67048) - http://www.bohemiancoding.com/sketch -->
    <title>Big Map</title>
    <desc>Created with Sketch.</desc>
    <g id="Big-Map" stroke="none" stroke-width="1" fill="none" fill-rule="evenodd">
        <path d="M468.896652,491.347257 L468.896652,379.937495 L654.151405,379.937495 L654.151405,353.09678 L728.12021,353.09678 L728.12021,408.695024 L797.165292,408.695024 L797.165292,491.347257 L468.896652,491.347257 Z M729.981917,406.884184 L797.166653,406.884184 L797.166653,330.944117 L729.981917,330.944117 L729.981917,406.884184 Z M582.738363,5.97700836 L582.738363,56.1082885 L588.32076,56.1082885 L588.32076,5.97700836 L695.730875,5.97700836 L695.730875,56.1082885 L697.59122,56.1082885 L697.59122,57.9522464 L466.928796,57.9522464 L466.928796,5.97700836 L582.738363,5.97700836 Z M466.928796,136.557574 L580.398982,136.557574 L580.398982,86.856816 L466.928796,86.856816 L466.928796,136.557574 Z M699.50464,161.587448 L699.50464,163.399613 L699.452926,163.399613 L699.452926,79.89561 L797.165292,79.89561 L797.165292,161.587448 L699.50464,161.587448 Z M797.165292,325.508945 L700.525313,325.508945 C704.446055,314.700861 717.178603,277.048089 717.178603,243.86877 C717.178603,211.04314 704.719596,177.204129 700.647793,167.02262 L797.165292,167.02262 L797.165292,325.508945 Z M797.165292,78.0821199 L699.452926,78.0821199 L699.452926,59.7630872 L699.452926,56.1082885 L701.313272,56.1082885 L701.313272,5.97700836 L797.165292,5.97700836 L797.165292,78.0821199 Z M220.06626,5.97700836 L220.06626,61.7752797 L221.927966,61.7752797 L221.927966,105.883229 L96.7486265,105.883229 L96.7486265,5.97700836 L220.06626,5.97700836 Z M340.213004,143.679067 C334.846989,144.247356 321.38364,144.506993 303.003373,136.634406 C279.101948,126.39726 273.051403,106.736324 272.992884,106.538947 L272.799637,105.883229 L223.789672,105.883229 L223.789672,61.7752797 L225.650018,61.7752797 L225.650018,5.97700836 L340.213004,5.97700836 L340.213004,143.679067 Z M6.03807266,491.347257 L98.8267154,491.347257 L98.8267154,440.32844 L6.03807266,440.32844 L6.03807266,491.347257 Z M6.03807266,168.424134 L50.5706877,168.424134 L50.5706877,5.97700836 L6.03807266,5.97700836 L6.03807266,168.424134 Z M6.03807266,323.71665 L50.5706877,323.71665 L50.5706877,173.857981 L6.03807266,173.857981 L6.03807266,323.71665 Z M6.03807266,402.091483 L50.5706877,402.091483 L50.5706877,329.151821 L6.03807266,329.151821 L6.03807266,402.091483 Z M394.160301,452.897026 L394.160301,381.960285 L384.312854,381.960285 L384.312854,353.09678 L463.206744,353.09678 L463.206744,379.937495 L463.312894,379.937495 L463.312894,491.347257 L411.887338,491.347257 L411.887338,452.897026 L394.160301,452.897026 Z M345.796762,491.347257 L345.796762,454.709192 L363.63131,454.709192 L363.63131,383.77245 L392.299955,383.77245 L392.299955,454.709192 L410.025632,454.709192 L410.025632,491.347257 L345.796762,491.347257 Z M340.213004,425.950337 L340.213004,491.347257 L185.381091,491.347257 L185.381091,425.950337 L215.033664,425.950337 L340.213004,425.950337 Z M216.895371,424.139496 L340.213004,424.139496 L340.213004,353.09678 L216.895371,353.09678 L216.895371,424.139496 Z M728.12021,351.285939 L652.289698,351.285939 L652.289698,378.125329 L468.896652,378.125329 L468.896652,349.265799 L463.312894,349.265799 L463.312894,351.285939 L382.451148,351.285939 L382.451148,381.960285 L361.770965,381.960285 L361.770965,452.897026 L345.796762,452.897026 L345.796762,349.265799 L340.213004,349.265799 L340.213004,351.285939 L215.033664,351.285939 L215.033664,424.139496 L183.520746,424.139496 L183.520746,491.347257 L100.688422,491.347257 L100.688422,438.517599 L6.03807266,438.517599 L6.03807266,403.902324 L52.432394,403.902324 L52.432394,5.97700836 L94.8869201,5.97700836 L94.8869201,107.695395 L222.858819,107.695395 L223.789672,107.695395 L271.421049,107.695395 C271.979016,109.281039 273.678776,113.546517 277.368166,118.690258 C281.591028,124.579796 289.338611,132.761035 302.253519,138.291584 C316.66133,144.464603 328.011206,145.782662 335.081063,145.782662 C339.702668,145.782662 342.489784,145.219672 343.113074,145.080581 L358.762023,145.080581 L358.762023,143.267091 L345.796762,143.267091 L345.796762,5.97700836 L461.345037,5.97700836 L461.345037,144.85406 L463.206744,144.85406 L465.06845,144.85406 L466.928796,144.85406 L466.928796,138.36974 L582.260688,138.36974 L582.260688,85.0459751 L466.928796,85.0459751 L466.928796,59.7630872 L697.59122,59.7630872 L697.59122,78.0821199 L697.59122,79.89561 L697.59122,165.210454 L697.901504,165.210454 C699.994563,170.160792 715.316896,207.657252 715.316896,243.86877 C715.316896,277.440195 702.14614,315.695698 698.550652,325.508945 L698.522073,325.508945 L698.522073,325.587101 C697.992684,327.031005 697.675596,327.843035 697.65246,327.902646 L697.169342,329.131951 L698.522073,329.131951 L698.522073,330.944117 L728.12021,330.944117 L728.12021,351.285939 Z M0.454314469,496.782429 L802.749051,496.782429 L802.749051,0.543161221 L0.454314469,0.543161221 L0.454314469,496.782429 Z" id="Fill-9" fill="#FFFFFF"></path>
    </g>
</svg>
