<?xml version="1.0" encoding="UTF-8"?>
<svg width="38px" height="20px" viewBox="0 0 38 20" version="1.1" xmlns="http://www.w3.org/2000/svg" xmlns:xlink="http://www.w3.org/1999/xlink">
    <!-- Generator: Sketch 52.1 (67048) - http://www.bohemiancoding.com/sketch -->
    <title>Report</title>
    <desc>Created with Sketch.</desc>
    <g id="Report" stroke="none" stroke-width="1" fill="none" fill-rule="evenodd">
        <g id="graph-symbol-copy" transform="translate(0.000000, 0.699620)" fill="#FFFFFF">
            <path d="M3.7181,17.3432931 C2.6201,17.3432931 1.7271,16.5145262 1.7271,15.4975716 C1.7271,14.47969 2.6201,13.6518501 3.7181,13.6518501 C4.8171,13.6518501 5.7091,14.47969 5.7091,15.4975716 C5.7091,16.5135991 4.8171,17.3432931 3.7181,17.3432931 M14.1531,1.77100272 C15.2501,1.77100272 16.1441,2.59976969 16.1441,3.61672424 C16.1441,4.63553286 15.2501,5.4633728 14.1531,5.4633728 C13.0551,5.4633728 12.1611,4.63553286 12.1611,3.61672424 C12.1611,2.60069672 13.0551,1.77100272 14.1531,1.77100272 M25.4931,15.4966446 C25.4931,16.5135991 24.6011,17.3423661 23.5021,17.3423661 C22.4051,17.3423661 21.5111,16.5135991 21.5111,15.4966446 C21.5111,14.477836 22.4051,13.650923 23.5021,13.650923 C24.6011,13.650923 25.4931,14.477836 25.4931,15.4966446 M33.9361,1.77100272 C35.0331,1.77100272 35.9271,2.59976969 35.9271,3.61672424 C35.9271,4.63553286 35.0331,5.4633728 33.9361,5.4633728 C32.8371,5.4633728 31.9451,4.63553286 31.9451,3.61672424 C31.9451,2.60069672 32.8371,1.77100272 33.9361,1.77100272 M21.0161,13.1290038 C20.3501,13.7315749 19.9341,14.5668311 19.9341,15.4966446 C19.9341,17.3238255 21.5301,18.8033692 23.5011,18.8033692 C25.4721,18.8033692 27.0691,17.3238255 27.0691,15.4966446 C27.0691,14.7197914 26.7691,14.0143198 26.2851,13.4516111 L32.5181,6.65182835 C32.9521,6.82518341 33.4311,6.92622995 33.9351,6.92622995 C35.9061,6.92622995 37.5021,5.44575919 37.5021,3.61765128 C37.5021,1.79139743 35.9061,0.31092667 33.9351,0.31092667 C31.9631,0.31092667 30.3661,1.79139743 30.3661,3.61765128 C30.3661,4.44734528 30.7081,5.19546044 31.2521,5.77670976 L25.0581,12.534776 C24.5861,12.3206315 24.0621,12.18992 23.5011,12.18992 C23.1071,12.18992 22.7351,12.2631555 22.3791,12.3725454 L16.7631,5.85736158 C17.3521,5.268696 17.7191,4.48628064 17.7191,3.61765128 C17.7191,1.79139743 16.1221,0.31092667 14.1521,0.31092667 C12.1811,0.31092667 10.5831,1.79139743 10.5831,3.61765128 C10.5831,4.44734528 10.9251,5.19546044 11.4681,5.77578273 L5.2741,12.533849 C4.8021,12.3197045 4.2781,12.1880659 3.7171,12.1880659 C1.7461,12.1880659 0.1501,13.6694637 0.1501,15.4966446 C0.1501,17.3238255 1.7461,18.8033692 3.7171,18.8033692 C5.6881,18.8033692 7.2851,17.3238255 7.2851,15.4966446 C7.2851,14.7197914 6.9851,14.0143198 6.5011,13.4516111 L12.7341,6.65182835 C13.1681,6.82611045 13.6471,6.92622995 14.1511,6.92622995 C14.6161,6.92622995 15.0571,6.83723484 15.4631,6.68798262 L21.0161,13.1290038 Z" id="Fill-8"></path>
        </g>
    </g>
</svg>
