<?xml version="1.0" encoding="UTF-8"?>
<svg width="38px" height="23px" viewBox="0 0 38 23" version="1.1" xmlns="http://www.w3.org/2000/svg" xmlns:xlink="http://www.w3.org/1999/xlink">
    <!-- Generator: Sketch 52.1 (67048) - http://www.bohemiancoding.com/sketch -->
    <title>Setting</title>
    <desc>Created with Sketch.</desc>
    <defs>
        <path d="M0,4.11157414 C0,5.9551635 1.612,7.4483346 3.6,7.4483346 C5.586,7.4483346 7.198,5.9551635 7.198,4.11157414 C7.198,2.27090494 5.586,0.776760456 3.6,0.776760456 C1.612,0.776760456 0,2.27090494 0,4.11157414 Z M1.624,4.11157414 C1.624,3.1021749 2.508,2.28258555 3.6,2.28258555 C4.69,2.28258555 5.574,3.1021749 5.574,4.11157414 C5.574,5.12389354 4.69,5.94250951 3.6,5.94250951 C2.508,5.94250951 1.624,5.12389354 1.624,4.11157414 Z" id="path-1"></path>
        <path d="M0.603,3.39419011 C0.603,5.23777947 2.215,6.73095057 4.203,6.73095057 C6.189,6.73095057 7.801,5.23777947 7.801,3.39419011 C7.801,1.55352091 6.189,0.0584030418 4.203,0.0584030418 C2.215,0.0584030418 0.603,1.55352091 0.603,3.39419011 Z M2.228,3.39419011 C2.228,2.38479087 3.111,1.56422814 4.203,1.56422814 C5.293,1.56422814 6.178,2.38479087 6.178,3.39419011 C6.178,4.40650951 5.293,5.22512548 4.203,5.22512548 C3.111,5.22512548 2.228,4.40650951 2.228,3.39419011 Z" id="path-3"></path>
        <path d="M0.964,4.21572624 C0.964,6.05931559 2.576,7.55248669 4.564,7.55248669 C6.55,7.55248669 8.162,6.05931559 8.162,4.21572624 C8.162,2.37408365 6.55,0.880912548 4.564,0.880912548 C2.576,0.880912548 0.964,2.37408365 0.964,4.21572624 Z M2.588,4.21572624 C2.588,3.20535361 3.472,2.38576426 4.564,2.38576426 C5.654,2.38576426 6.538,3.20535361 6.538,4.21572624 C6.538,5.22707224 5.654,6.0466616 4.564,6.0466616 C3.472,6.0466616 2.588,5.22707224 2.588,4.21572624 Z" id="path-5"></path>
    </defs>
    <g id="Setting" stroke="none" stroke-width="1" fill="none" fill-rule="evenodd">
        <g id="Group-16-Copy" transform="translate(0.000000, 0.619772)">
            <g id="Group-3" transform="translate(3.000000, 0.196721)">
                <mask id="mask-2" fill="white">
                    <use xlink:href="#path-1"></use>
                </mask>
                <g id="Clip-2"></g>
                <polygon id="Fill-1" fill="#FFFFFF" mask="url(#mask-2)" points="-5 12.3152548 12.198 12.3152548 12.198 -4.0901597 -5 -4.0901597"></polygon>
            </g>
            <g id="Group-6" transform="translate(26.000000, 7.983793)">
                <mask id="mask-4" fill="white">
                    <use xlink:href="#path-3"></use>
                </mask>
                <g id="Clip-5"></g>
                <polygon id="Fill-4" fill="#FFFFFF" mask="url(#mask-4)" points="-4.396 11.5978707 12.802 11.5978707 12.802 -4.80754373 -4.396 -4.80754373"></polygon>
            </g>
            <g id="Group-9" transform="translate(12.000000, 13.824097)">
                <mask id="mask-6" fill="white">
                    <use xlink:href="#path-5"></use>
                </mask>
                <g id="Clip-8"></g>
                <polygon id="Fill-7" fill="#FFFFFF" mask="url(#mask-6)" points="-4.036 12.4194068 13.162 12.4194068 13.162 -3.9860076 -4.036 -3.9860076"></polygon>
            </g>
            <polygon id="Fill-10" fill="#FFFFFF" points="0.18 5.07240152 3.926 5.07240152 3.926 3.54808213 0.18 3.54808213"></polygon>
            <polygon id="Fill-11" fill="#FFFFFF" points="9.318 5.07240152 37.531 5.07240152 37.531 3.54808213 9.318 3.54808213"></polygon>
            <polygon id="Fill-12" fill="#FFFFFF" points="0.18 12.1411163 27.713 12.1411163 27.713 10.616797 0.18 10.616797"></polygon>
            <polygon id="Fill-13" fill="#FFFFFF" points="32.801 12.1411163 37.531 12.1411163 37.531 10.616797 32.801 10.616797"></polygon>
            <polygon id="Fill-14" fill="#FFFFFF" points="0.18 18.8019833 13.754 18.8019833 13.754 17.2776639 0.18 17.2776639"></polygon>
            <polygon id="Fill-15" fill="#FFFFFF" points="18.928 18.8019833 37.531 18.8019833 37.531 17.2776639 18.928 17.2776639"></polygon>
        </g>
    </g>
</svg>
